<svg id="Camada_1" data-name="Camada 1" xmlns="http://www.w3.org/2000/svg" viewBox="0 0 1080 1080"><defs><style>.cls-1{fill:#050403;}</style></defs><path class="cls-1" d="M491.71,517.88a101,101,0,0,1-.9,11q-.92,7.4-2.47,16.71t-3.54,19.84q-2,10.53-4.2,20.33t-4.53,18A134,134,0,0,1,471.79,617q-.33,2.64-3.21,6.91a62.43,62.43,0,0,1-6.83,8.4,59.74,59.74,0,0,1-8.07,7.08c-2.74,2-5.05,3-6.91,3h-.5a1.89,1.89,0,0,1-1.81-2q0-2,2.64-8.4a1.06,1.06,0,0,1,.08-.49,1.26,1.26,0,0,0,.08-.5,36.08,36.08,0,0,1-14.16-11,77.91,77.91,0,0,1-11-19.26A151.65,151.65,0,0,1,416.8,617q-.33,2.64-3.21,6.91a62.43,62.43,0,0,1-6.83,8.4,57.33,57.33,0,0,1-8.15,7.08c-2.8,2-5.08,3-6.83,3h-.5a1.89,1.89,0,0,1-1.81-2q0-2,2.64-8.4a1.06,1.06,0,0,1,.08-.49,1.26,1.26,0,0,0,.08-.5,38,38,0,0,1-14.57-11.52,75.6,75.6,0,0,1-11.19-20,150.63,150.63,0,0,1-7.58-27.24,256.51,256.51,0,0,1-3.87-33.1c-.11-.54-.19-1.07-.24-1.56a12.85,12.85,0,0,1-.09-1.56,13.91,13.91,0,0,1,1.81-7.08,19.73,19.73,0,0,1,4.94-5.6,38.57,38.57,0,0,1,7.25-4.45,84.34,84.34,0,0,1,8.89-3.62,8.4,8.4,0,0,1,2.63-.49,1.75,1.75,0,0,1,2,2,8.5,8.5,0,0,1-.5,2.64,77.84,77.84,0,0,0-2.63,20.08v1.49q0,10.53.91,21.23t2.79,21.16a166.43,166.43,0,0,0,4.94,20.17,121.94,121.94,0,0,0,7.33,18.27q2.31-8.38,4.61-18.85T404,581.35q2-11.11,3.54-22.32t2.39-21.4a5.52,5.52,0,0,0-.09-1,6.37,6.37,0,0,1-.08-1,14.2,14.2,0,0,1,.33-2.64c-1.54-1.2-2.3-2.47-2.3-3.78q0-5.76,19.92-13.5a13.7,13.7,0,0,1,4.77-1,5.08,5.08,0,0,1,1.49.16,4.2,4.2,0,0,1,1.31-.16,1.75,1.75,0,0,1,2,2,8.5,8.5,0,0,1-.5,2.64q-.17,3.45-.82,9.14t-1.81,12.92q0,10.53,1,21.24t2.88,21a180.69,180.69,0,0,0,4.85,20,111.59,111.59,0,0,0,7.25,18.11q2.47-8.88,4.86-20t4.44-23q2.06-11.85,3.54-23.62T465.21,533c-1.54-1.2-2.31-2.47-2.31-3.78q0-5.61,19.76-13.5a13.35,13.35,0,0,1,4.61-1,7.21,7.21,0,0,1,4.44,1.64Z"/><path class="cls-1" d="M576.34,636.58a44.13,44.13,0,0,1-7.08-5.43,33.85,33.85,0,0,1-5.76-7.41,66.07,66.07,0,0,1-5-11q-2.4-6.51-5-15.89-3.29.33-6.34.5c-2,.11-4,.16-5.84.16a76.14,76.14,0,0,1-9-.49q-3,6.75-6.18,13a106.8,106.8,0,0,1-6.67,11.36,62.41,62.41,0,0,1-7.08,8.81,24.44,24.44,0,0,1-7.24,5.35,12.41,12.41,0,0,1-4.45,1.32q-3.12,0-3.12-4.28c0-.77,0-1.48.08-2.14s.08-1.32.08-2a90.15,90.15,0,0,0-1.4-16.3q-1.39-7.56-2.72-15a5,5,0,0,1-.16-1.48c0-1.21.38-1.81,1.15-1.81s2,.6,3.38,1.81a39.89,39.89,0,0,1,5.18,6.09,4.27,4.27,0,0,0,3,1.48c1.31,0,2.8-1,4.44-3q1.15-2.31,2.31-4.69c.76-1.59,1.53-3.16,2.3-4.69a36.8,36.8,0,0,1-8.81-8.89,76.44,76.44,0,0,1-6.33-11,83.88,83.88,0,0,0,9.79,4.94,66.77,66.77,0,0,0,10.46,3.46A156.42,156.42,0,0,0,527,559.28a97.78,97.78,0,0,0,3.05-22.14,9.36,9.36,0,0,1,.08-1.4,11,11,0,0,0,.08-1.4,49.46,49.46,0,0,0-1.81-12.84,5.21,5.21,0,0,1-.5-2c0-1.32,1-2,3-2a7.83,7.83,0,0,1,1.81.16,20.24,20.24,0,0,0,2.63.49,24.51,24.51,0,0,1,2.64.5,2.13,2.13,0,0,1,.74-1.65,7.77,7.77,0,0,1,1.73-1.15,12,12,0,0,1,2.14-.82,8.34,8.34,0,0,0,2-.83,7.13,7.13,0,0,1,3.13-.82,7,7,0,0,1,2.72.58c.93.38,2,.85,3,1.4q17.13,10.37,17.13,15.47c0,1.43-1,2.63-3,3.62a9.78,9.78,0,0,0-3.45,3c-.22,1.43-.39,2.82-.5,4.2s-.22,2.82-.33,4.36q.17,7.74.83,14.73a122.25,122.25,0,0,0,2,13.42c.88-.55,1.76-1.12,2.64-1.73a29,29,0,0,0,2.63-2.05,3.18,3.18,0,0,1,2-1.16q1.49,0,2.15,4a46.56,46.56,0,0,1,.66,4.94c.1,1.54.16,3,.16,4.28q0,8.24-4.45,10.87a82.76,82.76,0,0,0,4.45,9.39,12.28,12.28,0,0,0,6.83,6.83,26,26,0,0,0,9.8,1.89c1.2,0,2.36,0,3.46-.16s2.19-.28,3.29-.5q-7.25,11.85-12.68,19t-9.22,7.16A5.21,5.21,0,0,1,576.34,636.58Zm-27.17-56.8Q548,575.5,547,570.72t-2.22-10q-1.32,4.79-2.88,10t-3.38,10.46c1.76-.11,3.51-.27,5.27-.5S547.31,580.11,549.17,579.78Z"/><path class="cls-1" d="M664.25,515.24q12.36,7.57,15.81,12.27t-1.65,7a9.94,9.94,0,0,0-3.86,3.54,30.28,30.28,0,0,0-2.8,5.52,39,39,0,0,0-2,6.83q-.74,3.71-1.23,7.49a9.32,9.32,0,0,1-1.32,3.46,20.52,20.52,0,0,1-2.88,3.79,16.52,16.52,0,0,1-4,3,11,11,0,0,1-4.7,1.4,36.58,36.58,0,0,1,10,.91,23.34,23.34,0,0,1,6.58,2.63,8.9,8.9,0,0,1,3.3,3.21,2.61,2.61,0,0,1,0,2.8v5.35a31,31,0,0,0,.24,3.71c.17,1.31.44,3,.82,5s1,5.08,1.9,9.14a17.08,17.08,0,0,1-.58,10.29,33.4,33.4,0,0,1-6.25,10.45,59.37,59.37,0,0,1-10.7,9.63,78,78,0,0,1-13.75,7.82q-4.45.66-8.15-7t-6.51-22.81q3,.66,6.75,1.32a29.07,29.07,0,0,0,7.17.41,13.58,13.58,0,0,0,5.84-1.65,5.78,5.78,0,0,0,2.8-4.85c.11-1.43.25-2.85.41-4.28s.27-2.94.33-4.53,0-3.37-.08-5.35-.33-4.28-.66-6.92c0-1.09-.82-2-2.47-2.71a30.68,30.68,0,0,0-6.09-1.81c-2.42-.5-5-.93-7.82-1.32s-5.3-.74-7.49-1.07q-.17,6.42-.42,12.84t-.74,13.34a40,40,0,0,1-2.79,11.52,56.61,56.61,0,0,1-5.44,10.46,40,40,0,0,1-6.42,7.65c-2.2,2-4.17,3-5.93,3.13-1.2.22-1.84-.27-1.89-1.48a60,60,0,0,1,.74-8.07q1.48-13.83,2.22-25.93t.66-23.3q-.08-11.19-1-21.89t-2.72-22.07q-9.89-4.27,14.16-19.09a28.19,28.19,0,0,1,4.28-1.82,3,3,0,0,1,3,.66,5.15,5.15,0,0,1,2,2.8,8.26,8.26,0,0,1,0,3.29,40.7,40.7,0,0,1,4.94-1,99.49,99.49,0,0,0,10.29-1.73,36.61,36.61,0,0,0,9.13-3,6.22,6.22,0,0,1,4.2-.74A19.25,19.25,0,0,1,664.25,515.24Zm-14,43.47a29.6,29.6,0,0,0,1.32-7.58,77.44,77.44,0,0,0,.08-9.38,38.56,38.56,0,0,0-1.15-7.91c-.61-2.19-1.4-3.29-2.39-3.29l-18,.83c-.22,0-.32,1.42-.32,4.28.21,3.62.41,7.08.57,10.37s.36,6.48.58,9.55q.16,2.14.24,3.54c.06.93.09,1.51.09,1.73,0,.66.93,1.09,2.8,1.31a29.59,29.59,0,0,0,6.25,0,32.63,32.63,0,0,0,6.42-1.23C648.78,560.33,649.93,559.59,650.26,558.71Z"/><path class="cls-1" d="M712.33,533.19q.66,10.86,1.07,20t.49,17.53q.09,8.4-.16,16.47t-.91,17a38.36,38.36,0,0,1-2.88,11.52,64.19,64.19,0,0,1-5.43,10.46,36.68,36.68,0,0,1-6.42,7.65c-2.25,2-4.26,3-6,3.13q-2.15.17-2.31-1.65c-.11-1.2.28-3.84,1.16-7.9q1.47-13.83,2.22-25.93t.74-23.21q0-11.12-.9-21.82t-2.72-21.9q-5.28-2.29-1.73-7t15.89-12.1a18.67,18.67,0,0,1,4.28-1.9,3.15,3.15,0,0,1,3,.74,4.85,4.85,0,0,1,2,3.3,15.73,15.73,0,0,1-.25,4.11q-.42,2.31-1,5.1A19.29,19.29,0,0,0,712.33,533.19Z"/><path class="cls-1" d="M726.32,637.9a64.85,64.85,0,0,1-.49-7.74q0-7.9,3-11.85T739,614a37,37,0,0,1,6.09-.5,52.77,52.77,0,0,1,10.29,1.07q5.36,1.08,11.61,2.88c0-1.42,0-3.54.16-6.34s.19-5.78.25-9,.14-6.31.25-9.38.16-5.6.16-7.58a20,20,0,0,1-4.44.83q-3.14.33-7.17.57t-8.56.41q-4.53.16-8.47.17-3.46,0-6.1-.08a19.69,19.69,0,0,1-4-.42h-.33c-1.54,0-2.55-.87-3-2.63a23.7,23.7,0,0,1-.74-6.42q0-3.12.24-6.42c.17-2.2.25-4.17.25-5.93v-1.15c0-1,0-2,.08-3.13s.09-2.25.09-3.46q0-3.78-.17-7.65c-.11-2.58-.28-4.91-.49-7a47.13,47.13,0,0,0-.83-5.27A4.91,4.91,0,0,0,723,535c-2-.77-3-1.92-3-3.46q0-4.93,17.61-15.64c1.1-.55,2.14-1,3.13-1.4a7.84,7.84,0,0,1,2.8-.58,6.74,6.74,0,0,1,3,.83,10.79,10.79,0,0,0,5.77,3.13,36.36,36.36,0,0,0,8.72,1,46.7,46.7,0,0,0,7.25-.57,44.61,44.61,0,0,0,6.66-1.57,20.92,20.92,0,0,0,5.27-2.47,7.92,7.92,0,0,0,3-3.45,4.87,4.87,0,0,1,2.8-1.32q2,0,2.63,4.61a68,68,0,0,1,.5,7.74q0,7.89-3.05,11.77T776,537.8a43,43,0,0,1-6.42.49,51.43,51.43,0,0,1-10.2-1.07q-5.28-1.07-11.53-2.88c0,1.76,0,3.92-.08,6.5s-.11,5.27-.17,8.07-.13,5.54-.24,8.23-.17,5-.17,7l21.57-.82c1.54-.11,2.91-.17,4.12-.17h3.45a37.17,37.17,0,0,1,8.15.66,7.4,7.4,0,0,1,3.87,2,5.59,5.59,0,0,1,1.24,3.55c0,1.48.13,3.26.25,5.35-.12,1.53-.17,3.34-.17,5.43v6.75c0,3.29,0,6.64.08,10s.17,6.56.33,9.47a67.32,67.32,0,0,0,.74,7.24c.33,1.93.71,3,1.15,3.21,2,.88,3,2,3,3.46q0,4.94-17.62,15.64c-1.21.55-2.28,1-3.21,1.4a7,7,0,0,1-2.71.58,6.74,6.74,0,0,1-3-.83,10.79,10.79,0,0,0-5.76-3.12,36,36,0,0,0-8.73-1,45.31,45.31,0,0,0-7.24.58A45.82,45.82,0,0,0,740,635.1a20.89,20.89,0,0,0-5.35,2.47,7.89,7.89,0,0,0-3,3.46,4.89,4.89,0,0,1-2.63,1.31Q727,642.34,726.32,637.9Z"/><path class="cls-1" d="M880.43,636.58a44.67,44.67,0,0,1-7.09-5.43,34.47,34.47,0,0,1-5.76-7.41,66.9,66.9,0,0,1-5-11q-2.38-6.51-5-15.89-3.3.33-6.34.5c-2,.11-4,.16-5.84.16a76.19,76.19,0,0,1-9.06-.49q-3,6.75-6.17,13a108.53,108.53,0,0,1-6.67,11.36,63.86,63.86,0,0,1-7.08,8.81,24.44,24.44,0,0,1-7.24,5.35,12.41,12.41,0,0,1-4.45,1.32q-3.13,0-3.13-4.28c0-.77,0-1.48.08-2.14s.09-1.32.09-2a90.15,90.15,0,0,0-1.4-16.3q-1.41-7.56-2.72-15a5,5,0,0,1-.16-1.48c0-1.21.38-1.81,1.15-1.81s2,.6,3.37,1.81a40.41,40.41,0,0,1,5.19,6.09,4.27,4.27,0,0,0,3,1.48c1.32,0,2.8-1,4.45-3q1.14-2.31,2.3-4.69c.77-1.59,1.54-3.16,2.31-4.69a36.62,36.62,0,0,1-8.81-8.89,77.43,77.43,0,0,1-6.34-11,84,84,0,0,0,9.8,4.94,66.31,66.31,0,0,0,10.45,3.46,156.47,156.47,0,0,0,6.84-20.17,97.22,97.22,0,0,0,3-22.14,10.92,10.92,0,0,1,.08-1.4,9.3,9.3,0,0,0,.09-1.4,49.49,49.49,0,0,0-1.82-12.84,5.18,5.18,0,0,1-.49-2c0-1.32,1-2,3-2a7.94,7.94,0,0,1,1.81.16,19.94,19.94,0,0,0,2.63.49,24.34,24.34,0,0,1,2.63.5,2.11,2.11,0,0,1,.75-1.65,7.94,7.94,0,0,1,1.72-1.15,12.66,12.66,0,0,1,2.14-.82,8.25,8.25,0,0,0,2-.83,7.13,7.13,0,0,1,3.13-.82,7,7,0,0,1,2.71.58c.94.38,2,.85,3,1.4q17.12,10.37,17.12,15.47c0,1.43-1,2.63-3,3.62a9.81,9.81,0,0,0-3.46,3c-.22,1.43-.39,2.82-.49,4.2s-.22,2.82-.33,4.36q.17,7.74.82,14.73a124.67,124.67,0,0,0,2,13.42c.87-.55,1.75-1.12,2.63-1.73a27.75,27.75,0,0,0,2.64-2.05,3.13,3.13,0,0,1,2-1.16q1.49,0,2.14,4a44.1,44.1,0,0,1,.66,4.94c.11,1.54.17,3,.17,4.28q0,8.24-4.45,10.87a82.76,82.76,0,0,0,4.45,9.39,12.25,12.25,0,0,0,6.83,6.83,26,26,0,0,0,9.79,1.89c1.21,0,2.36,0,3.46-.16s2.19-.28,3.29-.5q-7.24,11.85-12.67,19t-9.22,7.16A5.14,5.14,0,0,1,880.43,636.58Zm-27.17-56.8q-1.15-4.28-2.22-9.06t-2.22-10c-.89,3.19-1.84,6.51-2.89,10s-2.17,7-3.37,10.46c1.75-.11,3.51-.27,5.27-.5S851.39,580.11,853.26,579.78Z"/><path class="cls-1" d="M968.34,515.24q12.35,7.57,15.81,12.27t-1.65,7a9.9,9.9,0,0,0-3.87,3.54,30.92,30.92,0,0,0-2.8,5.52,39.92,39.92,0,0,0-2,6.83q-.75,3.71-1.24,7.49a9.15,9.15,0,0,1-1.32,3.46,20.09,20.09,0,0,1-2.88,3.79,16.32,16.32,0,0,1-3.95,3,11,11,0,0,1-4.69,1.4,36.51,36.51,0,0,1,10,.91,23.42,23.42,0,0,1,6.59,2.63,8.86,8.86,0,0,1,3.29,3.21,2.57,2.57,0,0,1,0,2.8v5.35a29.13,29.13,0,0,0,.25,3.71c.16,1.31.44,3,.82,5s1,5.08,1.89,9.14a17.07,17.07,0,0,1-.57,10.29,33.43,33.43,0,0,1-6.26,10.45,59.37,59.37,0,0,1-10.7,9.63,78,78,0,0,1-13.75,7.82q-4.44.66-8.15-7t-6.5-22.81q3,.66,6.75,1.32a29,29,0,0,0,7.16.41,13.62,13.62,0,0,0,5.85-1.65,5.82,5.82,0,0,0,2.8-4.85c.1-1.43.24-2.85.41-4.28s.27-2.94.33-4.53,0-3.37-.08-5.35-.33-4.28-.66-6.92c0-1.09-.83-2-2.47-2.71a30.59,30.59,0,0,0-6.1-1.81c-2.41-.5-5-.93-7.82-1.32s-5.29-.74-7.49-1.07q-.17,6.42-.41,12.84t-.74,13.34a40.05,40.05,0,0,1-2.8,11.52A57.21,57.21,0,0,1,926,626.13a40.75,40.75,0,0,1-6.42,7.65c-2.2,2-4.17,3-5.93,3.13-1.21.22-1.84-.27-1.89-1.48a60,60,0,0,1,.74-8.07q1.49-13.83,2.22-25.93t.66-23.3q-.09-11.19-1-21.89t-2.72-22.07q-9.87-4.27,14.16-19.09a29.07,29.07,0,0,1,4.28-1.82,3,3,0,0,1,3,.66,5.18,5.18,0,0,1,2,2.8,8.26,8.26,0,0,1,0,3.29,41.47,41.47,0,0,1,4.94-1,99.05,99.05,0,0,0,10.29-1.73,36.71,36.71,0,0,0,9.14-3,6.22,6.22,0,0,1,4.2-.74A19.4,19.4,0,0,1,968.34,515.24Zm-14,43.47a30.1,30.1,0,0,0,1.31-7.58,77.47,77.47,0,0,0,.09-9.38,37.83,37.83,0,0,0-1.16-7.91c-.6-2.19-1.4-3.29-2.38-3.29l-18,.83c-.22,0-.33,1.42-.33,4.28q.33,5.43.58,10.37c.16,3.29.35,6.48.57,9.55.11,1.43.19,2.61.25,3.54s.08,1.51.08,1.73c0,.66.93,1.09,2.8,1.31a29.69,29.69,0,0,0,6.26,0,32.92,32.92,0,0,0,6.42-1.23C952.87,560.33,954,559.59,954.35,558.71Z"/><path class="cls-1" d="M1016.42,533.19q.65,10.86,1.07,20t.49,17.53q.07,8.4-.16,16.47t-.91,17a38.67,38.67,0,0,1-2.88,11.52,65,65,0,0,1-5.44,10.46,36.68,36.68,0,0,1-6.42,7.65q-3.37,3-6,3.13c-1.42.11-2.19-.44-2.3-1.65s.27-3.84,1.15-7.9q1.49-13.83,2.23-25.93t.74-23.21q0-11.12-.91-21.82t-2.72-21.9q-5.26-2.29-1.72-7t15.88-12.1a18.86,18.86,0,0,1,4.28-1.9,3.16,3.16,0,0,1,3,.74,4.87,4.87,0,0,1,2,3.3,15.69,15.69,0,0,1-.24,4.11q-.42,2.31-1,5.1A19,19,0,0,0,1016.42,533.19Z"/><path class="cls-1" d="M395.64,446.84h10.73c5.49,0,9.27,3.05,9.27,8.37s-3.74,8.58-9.57,8.58H398v13.09h-2.36ZM398,461.65h8.28c4.85,0,6.87-2.58,6.87-6.35,0-4-2.66-6.31-6.7-6.31H398Z"/><path class="cls-1" d="M473.68,462.12H458.36v12.61h16.78l-.34,2.15H456.05v-30h18.41V449h-16.1v11h15.32Z"/><path class="cls-1" d="M517.74,462.85v14h-2.36v-30h10.77c5.92,0,9.06,3.18,9.06,7.9a6.79,6.79,0,0,1-5.63,7c3.09.73,5.15,2.75,5.15,7.86v1.16c0,2.1-.17,4.93.39,6.09h-2.36c-.56-1.29-.43-3.69-.43-6.26v-.78c0-4.93-1.46-7-7.21-7Zm0-2.15H525c5.28,0,7.73-2,7.73-5.92,0-3.69-2.41-5.79-7.08-5.79h-7.9Z"/><path class="cls-1" d="M576.86,446.84h18.19V449H579.18v11.33h14.89v2.14H579.18v14.42h-2.32Z"/><path class="cls-1" d="M636.75,446.84V465c0,8,4.51,10,8.76,10,5,0,8.75-2.11,8.75-10v-18.2h2.36v18.07c0,9.39-5,12.31-11.2,12.31-5.92,0-11.07-3.22-11.07-11.93V446.84Z"/><path class="cls-1" d="M725.61,463.06c0-5.88,0-11.5.17-14.5h-.13c-1.2,4-7.29,18.84-11.11,28.32h-2.28c-2.87-7.34-9.18-23.82-10.55-28.37h-.09c.21,3.44.3,10.43.3,15.58v12.79h-2.31v-30h3.47c4.12,10.3,9.31,23.78,10.43,27.16h.08c.69-2.18,6.7-17.16,10.9-27.16h3.44v30h-2.32Z"/><path class="cls-1" d="M773.74,466.49l-3.82,10.39h-2.36l11-30h2.75l11.5,30h-2.53l-3.91-10.39Zm11.89-2.14c-3.35-8.93-5.06-13.22-5.67-15.24h0c-.73,2.28-2.66,7.6-5.36,15.24Z"/><path class="cls-1" d="M834.83,462.85v14h-2.35v-30h10.76c5.93,0,9.06,3.18,9.06,7.9a6.79,6.79,0,0,1-5.62,7c3.09.73,5.15,2.75,5.15,7.86v1.16c0,2.1-.17,4.93.38,6.09h-2.36c-.55-1.29-.43-3.69-.43-6.26v-.78c0-4.93-1.45-7-7.2-7Zm0-2.15h7.26c5.27,0,7.72-2,7.72-5.92,0-3.69-2.4-5.79-7.08-5.79h-7.9Z"/><path class="cls-1" d="M896.27,446.84v30H894v-30Z"/><path class="cls-1" d="M942.22,466.49l-3.82,10.39H936l11-30h2.75l11.49,30h-2.53l-3.9-10.39Zm11.88-2.14c-3.34-8.93-5.06-13.22-5.66-15.24h0c-.73,2.28-2.66,7.6-5.37,15.24Z"/><path class="cls-1" d="M194.5,409A131.05,131.05,0,1,0,325.55,540,131,131,0,0,0,194.5,409ZM225.45,505c6.88-5.86,12.93-12.72,19.17-19.3,4.47-4.72,7.29-10.35,8.12-18.72,11.14,20.25,11,39,1,57.8-1.61,3-1.82,2.92-11.62,5.33,7.54-12.26,12.66-24.51,9.53-39.74a109.87,109.87,0,0,1-30,28.74C220.46,513.26,220.63,509.1,225.45,505ZM173,517.6c1.55-19,9.49-35.66,19.56-51.45,1.12-1.76,2.5-4,3.93-.13h0A91.94,91.94,0,0,1,211.55,496h0c2.33,3.87,3,8.23,3.66,12.58,3.42,16.11,3.41,32.05-2.41,47.69h0c-.72,5.35-3.51,9.75-7,13.92l5.35-18.31c1.41-13.62,1.23-27.13-2.74-40.39h0l-5.31-12.5c-3.34-3.49-3.94-9.28-9.31-11.06a92.89,92.89,0,0,0-15.21,32.77h0a98.94,98.94,0,0,0,5.22,50c-4.05-3.83-5.69-8.84-7.26-13.78C172.44,544.07,170.35,531,173,517.6Zm-39.59-43.93c.88-2,1.2-4.37,3.95-5.67-.1,8.51,4.46,14.6,9.74,20.19s10.55,11.3,16.42,16.25c4.83,4.08,6.52,8.3,3.75,14.52-11-8-21.53-16.4-29.2-29.21-3.81,15.45,1.78,27.7,9,39.64-8.38-.42-10.07-1.53-13.22-8.4C126.61,505.27,126.29,489.49,133.36,473.67ZM83.15,507.92c0-.62.22-1.23.53-2.9,4.64,9.2,12.45,13.07,20.82,16,12.39,4.4,24.86,8.57,37.26,12.92,13.48,4.74,23.5,13.45,29.74,26.36a27.91,27.91,0,0,1,1.67,4.44c.16.53-.21,1.22-.64,3.29-9.22-20.61-26.91-26.22-45.88-30.14-11.1-2.29-22-5.43-32.31-12.79,1.67,9.3,6.06,16.1,12,22,11.32,11.19,25.53,17,40.5,21.35,6.09,1.76,12.34,3.14,17.82,6.5,2.42,1.48,5.54,2.43,6,6.83-14-7.27-29.5-8.1-43.76-13.31C98.38,558.08,82.21,535.86,83.15,507.92Zm184.77,82.47C253.15,601,235.84,604.66,218.44,608c-8.21,1.56-16.53,2.75-23.38,8.16-10.91-7.63-24.06-7.7-36.33-10.69-11.75-2.86-23.25-6.28-33.62-12.64-6.37-3.91-12-8.67-14.66-17.2,16.28,7.55,33.21,8.34,49.48,12,13.95,3.17,26.16,9,33.8,21.93h0a3.4,3.4,0,0,0,2.85-1.56c9-13.12,22.41-18.58,37.26-21.37,14.63-2.74,29.52-4.21,44.31-10.58C276.91,583.32,272.53,587.08,267.92,590.39Zm-14.45-19c-12,3.23-24.44,4.67-36.28,11.4,4.22-6.7,10-10.2,20.41-12.89,13-3.37,25.63-7.82,36.81-15.53,8.78-6,15.87-13.54,19.51-23.83.45-1.26,1.11-2.52.11-4.14-14.67,8.66-31.07,11.76-47.5,15-5.74,1.14-11.06,4.26-15.68,8.17h0A85.52,85.52,0,0,0,216,568c2.38-10,6.94-18.67,15.61-24.74,8.68-7.54,19.58-10.36,30.05-14.09,8.33-3,16.79-5.59,25-8.77,7.44-2.87,14.64-6.33,18.93-14,1.13,14.93-1.81,28.54-11.52,40.27C283.42,559.65,269.41,567,253.47,571.35Z"/></svg>